<svg width="160" height="74" viewBox="0 0 160 74" fill="none" xmlns="http://www.w3.org/2000/svg">
<path d="M75.2968 57.6949H73.9814V54.1771H75.2458C75.98 54.1771 76.3573 54.585 76.3573 55.0744C76.3608 55.2579 76.3024 55.4373 76.1913 55.5834C76.0803 55.7296 75.9233 55.834 75.7455 55.8799C75.9424 55.924 76.1184 56.0339 76.2445 56.1914C76.3705 56.3491 76.4391 56.5448 76.4389 56.7466C76.4389 57.2361 76.0208 57.6949 75.2968 57.6949ZM75.205 54.5544H74.4403V55.6964H75.2152C75.6435 55.6964 75.8883 55.4823 75.8883 55.1254C75.8883 54.7685 75.6537 54.5544 75.205 54.5544ZM75.205 56.0737H74.4097V57.3176H75.2254C75.6741 57.3176 75.9494 57.0933 75.9494 56.7058C75.9494 56.3184 75.6844 56.0737 75.2357 56.0737H75.205Z" fill="#6C6C75"/>
<path d="M79.5898 54.1771H80.0487V56.3999C80.0487 57.0525 80.3955 57.3278 80.9155 57.3278C81.4355 57.3278 81.7821 57.0525 81.7821 56.3999V54.1771H82.2409V56.3999C82.2409 56.7515 82.1014 57.0887 81.8528 57.3373C81.6042 57.5858 81.267 57.7255 80.9155 57.7255C80.5639 57.7255 80.2267 57.5858 79.9781 57.3373C79.7295 57.0887 79.5898 56.7515 79.5898 56.3999V54.1771Z" fill="#6C6C75"/>
<path d="M86.6562 57.7357C85.9424 57.7357 85.4428 57.338 85.4326 56.716H85.922C85.9309 56.8029 85.957 56.8871 85.9989 56.9637C86.0409 57.0403 86.0978 57.1077 86.1663 57.1619C86.2347 57.216 86.3134 57.2559 86.3975 57.2793C86.4816 57.3025 86.5696 57.3086 86.6562 57.2972C87.0946 57.2972 87.3598 57.0525 87.3598 56.716C87.3598 55.7677 85.453 56.3693 85.453 55.0642C85.453 54.483 85.922 54.0955 86.6256 54.0955C86.7612 54.0755 86.8995 54.0831 87.0321 54.1177C87.1647 54.1523 87.289 54.2134 87.3976 54.2971C87.5061 54.3809 87.5965 54.4856 87.6636 54.6052C87.7307 54.7247 87.773 54.8566 87.788 54.9928H87.2884C87.2566 54.839 87.1695 54.7022 87.0436 54.6083C86.9176 54.5144 86.7617 54.4697 86.6052 54.483C86.5219 54.4699 86.4368 54.4747 86.3555 54.4972C86.2742 54.5198 86.1988 54.5593 86.134 54.6135C86.0694 54.6675 86.017 54.7348 85.9804 54.8108C85.9439 54.8867 85.924 54.9697 85.922 55.054C85.922 55.9615 87.8186 55.3905 87.8186 56.6956C87.8231 56.8442 87.795 56.9918 87.7364 57.1284C87.6778 57.2649 87.59 57.3869 87.4794 57.486C87.3686 57.5851 87.2376 57.6588 87.0954 57.7019C86.9532 57.745 86.8033 57.7566 86.6562 57.7357Z" fill="#6C6C75"/>
<path d="M92.6107 54.1771C92.955 54.1554 93.2975 54.242 93.5902 54.4249C93.8828 54.6078 94.1108 54.8777 94.2421 55.1967H93.7221C93.6322 54.9883 93.4801 54.8128 93.2866 54.6943C93.0932 54.5756 92.8677 54.5196 92.6413 54.534C92.2707 54.534 91.9155 54.6811 91.6534 54.9432C91.3915 55.2051 91.2443 55.5605 91.2443 55.9309C91.2443 56.3014 91.3915 56.6567 91.6534 56.9186C91.9155 57.1807 92.2707 57.3278 92.6413 57.3278C92.8663 57.3416 93.0903 57.2864 93.2833 57.1699C93.4764 57.0533 93.6294 56.8808 93.7221 56.6752H94.2727C94.1413 56.9943 93.9134 57.2642 93.6207 57.4471C93.3281 57.6299 92.9856 57.7166 92.6413 57.6949C92.1653 57.6949 91.7088 57.5058 91.3723 57.1693C91.0357 56.8328 90.8467 56.3763 90.8467 55.9003C90.8467 55.4243 91.0357 54.9679 91.3723 54.6313C91.7088 54.2948 92.1653 54.1057 92.6413 54.1057L92.6107 54.1771Z" fill="#6C6C75"/>
<path d="M99.5345 56.9098H97.9952L97.7097 57.6949H97.2305L98.505 54.1771H99.0348L100.299 57.6745H99.8404L99.5345 56.9098ZM98.7599 54.7583L98.1278 56.5427H99.4019L98.7599 54.7583Z" fill="#6C6C75"/>
<path d="M104.5 57.7357C103.786 57.7357 103.287 57.338 103.276 56.716H103.766C103.775 56.8029 103.8 56.8871 103.843 56.9637C103.885 57.0403 103.941 57.1077 104.011 57.1619C104.079 57.216 104.157 57.2559 104.241 57.2793C104.326 57.3025 104.413 57.3086 104.5 57.2972C104.938 57.2972 105.204 57.0525 105.204 56.716C105.204 55.7677 103.297 56.3693 103.297 55.0642C103.297 54.483 103.766 54.0955 104.469 54.0955C104.605 54.0755 104.744 54.0831 104.876 54.1177C105.009 54.1523 105.133 54.2134 105.241 54.2971C105.35 54.3809 105.44 54.4856 105.507 54.6052C105.575 54.7247 105.616 54.8566 105.632 54.9928H105.122C105.094 54.8387 105.01 54.7008 104.885 54.6062C104.761 54.5117 104.605 54.4678 104.449 54.483C104.061 54.483 103.766 54.6767 103.766 55.054C103.766 55.9615 105.662 55.3905 105.662 56.6956C105.666 56.8442 105.639 56.9918 105.58 57.1284C105.522 57.2649 105.434 57.3869 105.323 57.486C105.213 57.5851 105.081 57.6588 104.939 57.7019C104.797 57.745 104.647 57.7566 104.5 57.7357Z" fill="#6C6C75"/>
<path d="M115.513 54.1771V57.6949H115.054L113.208 54.8909V57.6949H112.739V54.1771H113.208L115.054 56.9709V54.1771H115.513Z" fill="#6C6C75"/>
<path d="M120.417 57.7357C120.058 57.7438 119.705 57.6449 119.403 57.4516C119.101 57.2583 118.864 56.9793 118.721 56.6503C118.577 56.3213 118.537 55.9572 118.601 55.6045C118.666 55.2518 118.834 54.9263 119.085 54.6699C119.336 54.4133 119.657 54.2373 120.009 54.1643C120.36 54.0913 120.725 54.1247 121.057 54.26C121.39 54.3953 121.673 54.6265 121.874 54.9241C122.074 55.2217 122.181 55.5723 122.181 55.9309C122.191 56.167 122.152 56.4028 122.068 56.6234C121.983 56.8441 121.854 57.0452 121.688 57.2142C121.523 57.3833 121.325 57.5167 121.107 57.6064C120.888 57.6961 120.653 57.74 120.417 57.7357ZM120.417 57.3278C120.696 57.3483 120.976 57.2841 121.219 57.1435C121.462 57.003 121.657 56.7927 121.778 56.5399C121.899 56.2871 121.942 56.0037 121.9 55.7263C121.859 55.449 121.734 55.1906 121.544 54.9849C121.353 54.7793 121.104 54.6357 120.831 54.573C120.558 54.5104 120.272 54.5314 120.011 54.6335C119.749 54.7355 119.525 54.9139 119.367 55.1452C119.208 55.3767 119.123 55.6505 119.122 55.9309C119.107 56.1097 119.128 56.2898 119.186 56.4595C119.244 56.6292 119.338 56.7849 119.459 56.9166C119.582 57.0482 119.73 57.1528 119.895 57.2236C120.06 57.2945 120.237 57.3299 120.417 57.3278Z" fill="#6C6C75"/>
<path d="M132.408 55.1967H131.857C131.761 54.9965 131.608 54.8288 131.419 54.7145C131.228 54.6003 131.008 54.5447 130.787 54.5544C130.422 54.5544 130.071 54.6994 129.813 54.9575C129.555 55.2157 129.41 55.5658 129.41 55.9309C129.41 56.296 129.555 56.6461 129.813 56.9042C130.071 57.1624 130.422 57.3074 130.787 57.3074C131.093 57.3216 131.394 57.2156 131.625 57.0119C131.855 56.8083 131.997 56.523 132.02 56.2164H130.613V55.8391H132.469V56.196C132.432 56.6269 132.235 57.0282 131.915 57.3195C131.596 57.6108 131.178 57.7703 130.746 57.7663C130.27 57.7663 129.813 57.5772 129.476 57.2406C129.14 56.9041 128.951 56.4476 128.951 55.9717C128.951 55.4957 129.14 55.0393 129.476 54.7027C129.813 54.3661 130.27 54.1771 130.746 54.1771C131.094 54.1534 131.441 54.2389 131.739 54.4216C132.038 54.6043 132.271 54.8752 132.408 55.1967Z" fill="#6C6C75"/>
<path d="M135.641 54.1771H136.099V57.6949H135.641V54.1771Z" fill="#6C6C75"/>
<path d="M139.188 54.1771H141.574V54.5544H140.626V57.6949H140.167V54.5544H139.199L139.188 54.1771Z" fill="#6C6C75"/>
<path d="M146.918 56.1042H145.123V57.6949H144.705V54.1771H145.164V55.727H146.959V54.1771H147.417V57.6949H146.959L146.918 56.1042Z" fill="#6C6C75"/>
<path d="M150.67 54.1771H151.129V56.3999C151.109 56.5218 151.118 56.6464 151.154 56.7643C151.191 56.8821 151.254 56.99 151.339 57.0797C151.423 57.1694 151.527 57.2384 151.643 57.2814C151.759 57.3244 151.882 57.3403 152.006 57.3278C152.515 57.3278 152.862 57.0525 152.862 56.3999V54.1771H153.321V56.3999C153.321 56.7515 153.181 57.0887 152.933 57.3373C152.684 57.5858 152.346 57.7255 151.995 57.7255C151.644 57.7255 151.306 57.5858 151.057 57.3373C150.81 57.0887 150.67 56.7515 150.67 56.3999V54.1771Z" fill="#6C6C75"/>
<path d="M157.961 57.6949H156.646V54.1771H157.91C158.654 54.1771 159.021 54.585 159.021 55.0744C159.024 55.2579 158.966 55.4373 158.855 55.5834C158.744 55.7296 158.587 55.834 158.41 55.8799C158.607 55.9222 158.785 56.0316 158.911 56.1896C159.037 56.3475 159.105 56.5443 159.103 56.7466C159.072 57.2361 158.654 57.6949 157.961 57.6949ZM157.869 54.5544H157.104V55.6964H157.879C158.308 55.6964 158.552 55.4823 158.552 55.1254C158.552 54.7685 158.287 54.5544 157.839 54.5544H157.869ZM157.869 56.0737H157.064V57.3176H157.879C158.338 57.3176 158.603 57.0933 158.603 56.7058C158.603 56.3184 158.328 56.0737 157.879 56.0737H157.869Z" fill="#6C6C75"/>
<path d="M159.654 52.0052H26.2217C26.1297 52.0052 26.0415 52.0417 25.9765 52.1068C25.9115 52.1718 25.875 52.2599 25.875 52.3519C25.8749 52.4448 25.9111 52.5341 25.9758 52.6007C26.0406 52.6674 26.1288 52.7061 26.2217 52.7088H159.654C159.746 52.7061 159.835 52.6674 159.899 52.6007C159.965 52.5341 160 52.4448 160 52.3519C160 52.2599 159.964 52.1718 159.898 52.1068C159.834 52.0417 159.745 52.0052 159.654 52.0052Z" fill="#D3D3DD"/>
<path d="M29.7292 49.1808V39.2799H27.0577C26.7873 39.2799 26.5279 39.1726 26.3367 38.9813C26.1456 38.7901 26.0381 38.5307 26.0381 38.2603C26.0381 37.9899 26.1456 37.7306 26.3367 37.5393C26.5279 37.3481 26.7873 37.2406 27.0577 37.2406H34.3789C34.6493 37.2406 34.9087 37.3481 35.0999 37.5393C35.2911 37.7306 35.3985 37.9899 35.3985 38.2603C35.3985 38.5307 35.2911 38.7901 35.0999 38.9813C34.9087 39.1726 34.6493 39.2799 34.3789 39.2799H31.6972V49.1808C31.6972 49.4512 31.5898 49.7106 31.3985 49.9018C31.2073 50.0931 30.9479 50.2004 30.6775 50.2004C30.5472 50.1993 30.4185 50.1717 30.2992 50.1191C30.1799 50.0666 30.0727 49.9902 29.9839 49.8947C29.8951 49.7993 29.8268 49.6867 29.783 49.5641C29.7392 49.4413 29.721 49.3109 29.7292 49.1808Z" fill="#54535B"/>
<path d="M36.9783 49.1807V38.2704C36.9783 38 37.0857 37.7407 37.2769 37.5495C37.4681 37.3583 37.7275 37.2508 37.9979 37.2508C38.2684 37.2508 38.5277 37.3583 38.7189 37.5495C38.9101 37.7407 39.0176 38 39.0176 38.2704V42.7467H44.4727V38.2704C44.4727 38 44.5801 37.7407 44.7714 37.5495C44.9626 37.3583 45.222 37.2508 45.4924 37.2508C45.7628 37.2508 46.0221 37.3583 46.2134 37.5495C46.4046 37.7407 46.512 38 46.512 38.2704V49.1807C46.512 49.4513 46.4046 49.7106 46.2134 49.9017C46.0221 50.093 45.7628 50.2004 45.4924 50.2004C45.222 50.2004 44.9626 50.093 44.7714 49.9017C44.5801 49.7106 44.4727 49.4513 44.4727 49.1807V44.7554H38.9768V49.1807C38.9768 49.4513 38.8693 49.7106 38.6782 49.9017C38.4869 50.093 38.2276 50.2004 37.9572 50.2004C37.6867 50.2004 37.4273 50.093 37.2362 49.9017C37.0449 49.7106 36.9375 49.4513 36.9375 49.1807H36.9783Z" fill="#54535B"/>
<path d="M49.0928 49.1706V38.2909C49.0928 38.0205 49.2002 37.7612 49.3915 37.5699C49.5826 37.3787 49.8419 37.2712 50.1125 37.2712H55.486C55.7564 37.2712 56.0157 37.3787 56.207 37.5699C56.3982 37.7612 56.5057 38.0205 56.5057 38.2909C56.5057 38.5613 56.3982 38.8207 56.207 39.0119C56.0157 39.2031 55.7564 39.3105 55.486 39.3105H51.1015V42.7875H54.293C54.5048 42.8493 54.6908 42.9781 54.8233 43.1546C54.9556 43.3311 55.0272 43.5459 55.0272 43.7664C55.0272 43.9871 54.9556 44.2017 54.8233 44.3782C54.6908 44.5547 54.5048 44.6835 54.293 44.7453H51.1015V48.1917H55.4758C55.7462 48.1917 56.0055 48.2992 56.1968 48.4904C56.388 48.6816 56.4955 48.9409 56.4955 49.2114C56.4961 49.4699 56.3985 49.7189 56.2224 49.9083C56.0464 50.0975 55.8051 50.213 55.5472 50.231H50.0207C49.7592 50.2077 49.5169 50.0844 49.344 49.8869C49.1712 49.6894 49.0812 49.4328 49.0928 49.1706Z" fill="#54535B"/>
<path d="M61.9298 43.7562C61.9238 42.46 62.3041 41.1913 63.022 40.112C63.7399 39.0328 64.763 38.1918 65.9608 37.6963C67.1585 37.2007 68.4768 37.0732 69.7474 37.3298C71.018 37.5864 72.1834 38.2156 73.095 39.1372C73.1895 39.226 73.2646 39.3335 73.3155 39.4528C73.3664 39.5722 73.392 39.7008 73.3907 39.8305C73.3907 40.1009 73.2832 40.3603 73.092 40.5515C72.9007 40.7428 72.6414 40.8502 72.371 40.8502C72.2439 40.8503 72.118 40.8251 72.0007 40.776C71.8834 40.7271 71.7771 40.6552 71.6878 40.5647C71.2599 40.1401 70.7522 39.8043 70.1939 39.5768C69.6357 39.3492 69.038 39.2345 68.4351 39.2391C67.2703 39.2944 66.1714 39.7961 65.3665 40.64C64.5617 41.4839 64.1127 42.6053 64.1127 43.7715C64.1127 44.9377 64.5617 46.0591 65.3665 46.903C66.1714 47.7469 67.2703 48.2486 68.4351 48.3038C69.2511 48.3767 70.0679 48.1729 70.754 47.7254C71.4402 47.2778 71.9558 46.6124 72.2181 45.8363H70.1176C69.8472 45.8363 69.5878 45.7289 69.3966 45.5376C69.2053 45.3464 69.0979 45.087 69.0979 44.8166C69.0979 44.5462 69.2053 44.2868 69.3966 44.0956C69.5878 43.9044 69.8472 43.797 70.1176 43.797H73.4213C73.6917 43.797 73.951 43.9044 74.1423 44.0956C74.3334 44.2868 74.4409 44.5462 74.4409 44.8166C74.3513 46.3286 73.674 47.7456 72.5537 48.7649C71.4334 49.7842 69.959 50.325 68.4453 50.2718C67.5893 50.2731 66.7414 50.1056 65.9503 49.7786C65.1592 49.4516 64.4405 48.9717 63.8351 48.3664C63.2298 47.7611 62.75 47.0423 62.423 46.2512C62.096 45.4601 61.9284 44.6122 61.9298 43.7562Z" fill="#54535B"/>
<path d="M76.3887 49.1807V38.2704C76.3887 38 76.4961 37.7407 76.6873 37.5495C76.8785 37.3583 77.1379 37.2508 77.4083 37.2508C77.6787 37.2508 77.9381 37.3583 78.1293 37.5495C78.3205 37.7407 78.428 38 78.428 38.2704V49.1807C78.428 49.4513 78.3205 49.7106 78.1293 49.9017C77.9381 50.093 77.6787 50.2004 77.4083 50.2004C77.1379 50.2004 76.8785 50.093 76.6873 49.9017C76.4961 49.7106 76.3887 49.4513 76.3887 49.1807Z" fill="#54535B"/>
<path d="M83.5257 49.1808V39.2799H80.8644C80.594 39.2799 80.3347 39.1726 80.1434 38.9813C79.9522 38.7901 79.8447 38.5307 79.8447 38.2603C79.8447 37.9899 79.9522 37.7306 80.1434 37.5393C80.3347 37.3481 80.594 37.2406 80.8644 37.2406H88.1958C88.4662 37.2406 88.7255 37.3481 88.9168 37.5393C89.108 37.7306 89.2154 37.9899 89.2154 38.2603C89.2154 38.5307 89.108 38.7901 88.9168 38.9813C88.7255 39.1726 88.4662 39.2799 88.1958 39.2799H85.5039V49.1808C85.5039 49.4512 85.3964 49.7106 85.2052 49.9018C85.014 50.0931 84.7547 50.2004 84.4842 50.2004C84.3526 50.2023 84.222 50.1766 84.1009 50.1252C83.9796 50.0738 83.8705 49.9976 83.7804 49.9018C83.6902 49.8058 83.621 49.6922 83.5772 49.568C83.5333 49.4439 83.5158 49.3121 83.5257 49.1808Z" fill="#54535B"/>
<path d="M94.7419 47.8144C94.6583 47.6427 94.613 47.4548 94.6094 47.2638C94.6275 47.0059 94.7428 46.7646 94.9321 46.5885C95.1214 46.4125 95.3705 46.3149 95.629 46.3155C95.8219 46.3241 96.0093 46.3832 96.1721 46.487C96.335 46.5908 96.4677 46.7356 96.5569 46.9069C96.8467 47.3518 97.2472 47.7136 97.7192 47.9568C98.1912 48.1999 98.7184 48.316 99.2487 48.2937C100.431 48.2937 101.665 47.6309 101.665 46.4481C101.665 45.2653 100.411 44.9288 99.2691 44.6331C96.7812 44.1641 94.8643 43.0934 94.8643 40.9216C94.898 40.3999 95.0343 39.8899 95.2652 39.4209C95.4963 38.9519 95.8175 38.5331 96.2104 38.1884C96.6035 37.8436 97.0606 37.5798 97.5558 37.4119C98.0509 37.244 98.5742 37.1755 99.0957 37.21C99.836 37.1744 100.573 37.3269 101.238 37.6532C101.903 37.9795 102.475 38.469 102.899 39.076C102.967 39.1938 103.002 39.3275 103.001 39.4635C103 39.5849 102.975 39.7048 102.927 39.8163C102.879 39.9278 102.808 40.0287 102.722 40.1131C102.634 40.1975 102.531 40.2637 102.418 40.308C102.306 40.3523 102.184 40.3737 102.063 40.371C101.847 40.3844 101.634 40.3192 101.461 40.1874C101.163 39.853 100.794 39.5883 100.382 39.4121C99.9696 39.2359 99.524 39.1525 99.0754 39.1678C97.8723 39.1678 96.8424 39.8102 96.8322 40.8604C96.822 41.9106 98.1884 42.3389 99.7585 42.6754C101.645 43.1852 103.521 44.0621 103.521 46.3053C103.521 48.5486 101.482 50.2718 99.0346 50.2718C98.1646 50.2846 97.307 50.0633 96.5518 49.6309C95.7966 49.1987 95.1715 48.5712 94.7419 47.8144Z" fill="#54535B"/>
<path d="M105.407 49.1706V38.2909C105.407 38.0205 105.514 37.7612 105.706 37.5699C105.897 37.3787 106.157 37.2712 106.427 37.2712H111.8C112.071 37.2712 112.33 37.3787 112.521 37.5699C112.712 37.7612 112.82 38.0205 112.82 38.2909C112.82 38.5613 112.712 38.8207 112.521 39.0119C112.33 39.2031 112.071 39.3105 111.8 39.3105H107.426V42.7875H110.628C110.84 42.8493 111.026 42.9781 111.158 43.1546C111.291 43.3311 111.362 43.5459 111.362 43.7664C111.362 43.9871 111.291 44.2017 111.158 44.3782C111.026 44.5547 110.84 44.6835 110.628 44.7453H107.467V48.1917H111.841C112.111 48.1917 112.37 48.2992 112.562 48.4904C112.753 48.6816 112.861 48.9409 112.861 49.2114C112.861 49.4699 112.764 49.7189 112.588 49.9083C112.411 50.0975 112.171 50.213 111.913 50.231H106.417C106.28 50.2298 106.145 50.2011 106.02 50.1467C105.895 50.0923 105.781 50.0133 105.688 49.9145C105.593 49.8156 105.519 49.6988 105.471 49.571C105.424 49.4432 105.401 49.307 105.407 49.1706Z" fill="#54535B"/>
<path d="M113.504 49.2215C113.502 49.0627 113.536 48.9056 113.606 48.7627L118.327 37.8626C118.404 37.6815 118.532 37.5264 118.694 37.416C118.857 37.3056 119.048 37.2448 119.244 37.2406C119.439 37.2399 119.628 37.298 119.789 37.4072C119.949 37.5164 120.072 37.6717 120.142 37.8524L124.812 48.7219C124.876 48.8667 124.911 49.0226 124.914 49.1807C124.915 49.3115 124.888 49.4409 124.835 49.561C124.783 49.6809 124.708 49.7887 124.612 49.8779C124.516 49.9669 124.403 50.0352 124.279 50.0784C124.156 50.1217 124.024 50.1389 123.894 50.129C123.7 50.1267 123.511 50.0688 123.347 49.9622C123.185 49.8556 123.057 49.7047 122.976 49.5274L121.712 46.5398H116.614L115.38 49.5172C115.281 49.7102 115.122 49.8663 114.927 49.9628C114.732 50.0592 114.512 50.091 114.298 50.0534C114.084 50.0158 113.888 49.9109 113.737 49.754C113.587 49.5969 113.491 49.3962 113.463 49.1807L113.504 49.2215ZM120.906 44.5821L119.193 40.5035L117.491 44.5821H120.906Z" fill="#54535B"/>
<path d="M126.432 49.1808V38.2705C126.432 38.0001 126.539 37.7408 126.73 37.5495C126.922 37.3583 127.181 37.2508 127.452 37.2508H130.827C131.333 37.2441 131.835 37.3376 132.304 37.526C132.775 37.7144 133.202 37.994 133.564 38.3484C133.925 38.7029 134.212 39.1255 134.409 39.5916C134.606 40.0577 134.709 40.5583 134.712 41.0643C134.713 41.8511 134.468 42.6184 134.01 43.2585C133.554 43.8988 132.907 44.3794 132.163 44.6331L134.508 48.6913C134.596 48.8354 134.642 49.0015 134.64 49.1706C134.64 49.441 134.532 49.7004 134.342 49.8916C134.15 50.0829 133.891 50.1902 133.621 50.1902C133.444 50.1875 133.272 50.1389 133.12 50.0496C132.968 49.9603 132.842 49.8331 132.754 49.6804L129.95 44.9084H128.41V49.1808C128.41 49.4512 128.302 49.7106 128.112 49.9018C127.92 50.0931 127.661 50.2004 127.391 50.2004C127.12 50.2004 126.861 50.0931 126.669 49.9018C126.478 49.7106 126.371 49.4512 126.371 49.1808H126.432ZM130.817 42.8793C131.303 42.8743 131.768 42.6817 132.116 42.3417C132.464 42.0015 132.666 41.5403 132.683 41.0541C132.677 40.8136 132.625 40.5764 132.527 40.3563C132.43 40.1362 132.29 39.9375 132.116 39.7717C131.941 39.6058 131.736 39.4761 131.511 39.39C131.286 39.3039 131.046 39.263 130.807 39.2697H128.441V42.8793H130.817Z" fill="#54535B"/>
<path d="M135.977 43.7562C135.971 42.46 136.351 41.1913 137.069 40.112C137.787 39.0328 138.809 38.1918 140.007 37.6963C141.205 37.2007 142.523 37.0732 143.793 37.3298C145.065 37.5864 146.23 38.2156 147.142 39.1372C147.236 39.226 147.311 39.3335 147.362 39.4528C147.413 39.5722 147.439 39.7008 147.438 39.8305C147.429 40.024 147.366 40.2114 147.255 40.3703C147.145 40.5294 146.991 40.6537 146.812 40.7285C146.634 40.8034 146.437 40.8258 146.247 40.7933C146.056 40.7606 145.877 40.6743 145.735 40.5443C145.099 39.9107 144.291 39.4795 143.411 39.3052C142.531 39.1309 141.619 39.2214 140.79 39.5651C139.962 39.9088 139.254 40.4903 138.756 41.2363C138.258 41.9823 137.991 42.8592 137.991 43.7562C137.991 44.6532 138.258 45.5301 138.756 46.2761C139.254 47.022 139.962 47.6036 140.79 47.9474C141.619 48.2911 142.531 48.3814 143.411 48.2072C144.291 48.0329 145.099 47.6017 145.735 46.9681C145.924 46.7897 146.176 46.6911 146.438 46.6928C146.574 46.6838 146.711 46.704 146.838 46.752C146.966 46.8001 147.083 46.8749 147.179 46.9715C147.275 47.068 147.35 47.1841 147.398 47.3118C147.447 47.4397 147.466 47.5762 147.458 47.7124C147.456 47.975 147.354 48.227 147.172 48.416C146.261 49.3334 145.096 49.9593 143.829 50.2143C142.562 50.4691 141.246 50.3415 140.051 49.8477C138.855 49.3539 137.834 48.516 137.116 47.4406C136.398 46.3651 136.015 45.1004 136.017 43.8072L135.977 43.7562Z" fill="#54535B"/>
<path d="M149.192 49.1807V38.2704C149.192 38 149.3 37.7407 149.491 37.5495C149.683 37.3583 149.942 37.2508 150.212 37.2508C150.483 37.2508 150.742 37.3583 150.933 37.5495C151.125 37.7407 151.232 38 151.232 38.2704V42.7467H156.728V38.2704C156.728 38 156.836 37.7407 157.026 37.5495C157.218 37.3583 157.477 37.2508 157.747 37.2508C158.019 37.2508 158.277 37.3583 158.468 37.5495C158.66 37.7407 158.767 38 158.767 38.2704V49.1807C158.767 49.4513 158.66 49.7106 158.468 49.9017C158.277 50.093 158.019 50.2004 157.747 50.2004C157.477 50.2004 157.218 50.093 157.026 49.9017C156.836 49.7106 156.728 49.4513 156.728 49.1807V44.7554H151.232V49.1807C151.232 49.4513 151.125 49.7106 150.933 49.9017C150.742 50.093 150.483 50.2004 150.212 50.2004C149.942 50.2004 149.683 50.093 149.491 49.9017C149.3 49.7106 149.192 49.4513 149.192 49.1807Z" fill="#54535B"/>
<path d="M40.3543 68.8313C33.2779 70.8804 26.1913 68.8313 19.4616 64.477C7.64381 56.7929 5.06412 41.937 11.651 29.6425C18.5949 16.7435 34.0834 13.1371 46.5538 20.688C49.0837 22.2077 51.3385 24.1477 53.2223 26.4254C54.521 28.0275 56.2441 29.2278 58.1926 29.8877C60.1412 30.5476 62.2359 30.6402 64.2346 30.1548L64.5813 30.0625C65.6504 29.8001 66.6457 29.2958 67.4914 28.5881C68.337 27.8805 69.0108 26.9882 69.4611 25.9793C69.9115 24.9704 70.1268 23.8714 70.0905 22.7663C70.0541 21.6611 69.7671 20.5788 69.2513 19.602C66.0864 13.662 61.3656 8.7044 55.5993 5.26537C49.833 1.82636 43.2407 0.0367714 36.5354 0.0901493C29.83 0.143527 23.2668 2.03783 17.5556 5.56823C11.8442 9.09861 7.20209 14.1307 4.13126 20.1204C1.06041 26.11 -0.322311 32.8292 0.132597 39.5514C0.587516 46.2736 2.86277 52.7429 6.7123 58.2596C10.5619 63.7765 15.8392 68.1308 21.9735 70.8519C28.108 73.5729 34.8659 74.5571 41.5167 73.6979C41.8464 73.649 42.1626 73.533 42.4459 73.3571C42.7294 73.1811 42.9741 72.9488 43.165 72.6745C43.356 72.4001 43.4891 72.0895 43.5563 71.7616C43.6236 71.4337 43.6235 71.0955 43.556 70.7677C43.4842 70.4227 43.3423 70.0964 43.1392 69.809C42.9361 69.5216 42.6761 69.2795 42.3756 69.0978C42.0751 68.916 41.7404 68.7986 41.3926 68.7527C41.0448 68.7068 40.6914 68.7337 40.3543 68.8313Z" fill="url(#paint0_linear)"/>
<path style="mix-blend-mode:multiply" opacity="0.6" d="M40.3543 68.8313C33.2779 70.8804 26.1913 68.8313 19.4616 64.477C7.64381 56.7929 5.06412 41.937 11.651 29.6425C18.5949 16.7435 34.0834 13.1371 46.5538 20.688C49.0837 22.2077 51.3385 24.1477 53.2223 26.4254C54.521 28.0275 56.2441 29.2278 58.1926 29.8877C60.1412 30.5476 62.2359 30.6402 64.2346 30.1548L64.5813 30.0625C65.6504 29.8001 66.6457 29.2958 67.4914 28.5881C68.337 27.8805 69.0108 26.9882 69.4611 25.9793C69.9115 24.9704 70.1268 23.8714 70.0905 22.7663C70.0541 21.6611 69.7671 20.5788 69.2513 19.602C66.0864 13.662 61.3656 8.7044 55.5993 5.26537C49.833 1.82636 43.2407 0.0367714 36.5354 0.0901493C29.83 0.143527 23.2668 2.03783 17.5556 5.56823C11.8442 9.09861 7.20209 14.1307 4.13126 20.1204C1.06041 26.11 -0.322311 32.8292 0.132597 39.5514C0.587516 46.2736 2.86277 52.7429 6.7123 58.2596C10.5619 63.7765 15.8392 68.1308 21.9735 70.8519C28.108 73.5729 34.8659 74.5571 41.5167 73.6979C41.8464 73.649 42.1626 73.533 42.4459 73.3571C42.7294 73.1811 42.9741 72.9488 43.165 72.6745C43.356 72.4001 43.4891 72.0895 43.5563 71.7616C43.6236 71.4337 43.6235 71.0955 43.556 70.7677C43.4842 70.4227 43.3423 70.0964 43.1392 69.809C42.9361 69.5216 42.6761 69.2795 42.3756 69.0978C42.0751 68.916 41.7404 68.7986 41.3926 68.7527C41.0448 68.7068 40.6914 68.7337 40.3543 68.8313Z" fill="url(#paint1_linear)"/>
<path d="M10.3348 29.8473C13.9527 23.8331 19.7892 19.4989 26.573 17.7891C33.3568 16.0793 40.5382 17.1322 46.5529 20.7187C49.0827 22.2384 51.3376 24.1783 53.2214 26.4561C54.52 28.0582 56.243 29.2584 58.1917 29.9183C60.1403 30.5783 62.2349 30.6709 64.2337 30.1854L64.5803 30.0932C65.6537 29.832 66.6532 29.3272 67.5022 28.6175C68.3511 27.9078 69.027 27.0121 69.4778 25.9992C69.9287 24.9862 70.1427 23.883 70.1033 22.774C70.0638 21.665 69.7721 20.5799 69.2504 19.6019C66.248 13.9684 61.843 9.21348 56.4656 5.80137C51.0882 2.38926 44.922 0.43658 38.5693 0.133988C32.2165 -0.168604 25.8942 1.18923 20.2197 4.07492C14.5451 6.96062 9.71225 11.2755 6.19295 16.5984C2.67365 21.9213 0.588196 28.0702 0.140201 34.4447C-0.307804 40.8192 0.896968 47.2015 3.63687 52.9685C6.37677 58.7355 10.5582 63.69 15.7728 67.3483C20.9875 71.0066 27.0571 73.2438 33.3891 73.8412C2.45285 68.2472 4.44118 39.5498 10.3348 29.8473Z" fill="url(#paint2_linear)"/>
<path style="mix-blend-mode:multiply" opacity="0.6" d="M10.3348 29.8473C13.9527 23.8331 19.7892 19.4989 26.573 17.7891C33.3568 16.0793 40.5382 17.1322 46.5529 20.7187C49.0827 22.2384 51.3376 24.1783 53.2214 26.4561C54.52 28.0582 56.243 29.2584 58.1917 29.9183C60.1403 30.5783 62.2349 30.6709 64.2337 30.1854L64.5803 30.0932C65.6537 29.832 66.6532 29.3272 67.5022 28.6175C68.3511 27.9078 69.027 27.0121 69.4778 25.9992C69.9287 24.9862 70.1427 23.883 70.1033 22.774C70.0638 21.665 69.7721 20.5799 69.2504 19.6019C66.248 13.9684 61.843 9.21348 56.4656 5.80137C51.0882 2.38926 44.922 0.43658 38.5693 0.133988C32.2165 -0.168604 25.8942 1.18923 20.2197 4.07492C14.5451 6.96062 9.71225 11.2755 6.19295 16.5984C2.67365 21.9213 0.588196 28.0702 0.140201 34.4447C-0.307804 40.8192 0.896968 47.2015 3.63687 52.9685C6.37677 58.7355 10.5582 63.69 15.7728 67.3483C20.9875 71.0066 27.0571 73.2438 33.3891 73.8412C2.45285 68.2472 4.44118 39.5498 10.3348 29.8473Z" fill="url(#paint3_linear)"/>
<path d="M27.5675 11.8671C42.8623 11.3651 50.1222 20.2171 53.8848 26.016C54.9402 27.7309 56.5144 29.0611 58.3769 29.8115C60.2394 30.5618 62.2921 30.6931 64.2342 30.1859L64.5809 30.0937C65.6543 29.8326 66.6538 29.3277 67.5027 28.618C68.3517 27.9083 69.0275 27.0126 69.4784 25.9996C69.9293 24.9868 70.1432 23.8834 70.1039 22.7745C70.0644 21.6656 69.7727 20.5804 69.2509 19.6024C65.3414 12.2162 59.0534 6.38148 51.4151 3.05229C43.7769 -0.276907 35.2405 -0.903521 27.2018 1.27491C19.1632 3.45335 12.0979 8.30791 7.16156 15.0447C2.22521 21.7816 -0.290216 30.002 0.0266617 38.3618C-0.269038 23.0858 12.2421 12.3691 27.5675 11.8671Z" fill="url(#paint4_linear)"/>
<path d="M64.5808 28.7311L64.2341 28.813C62.2921 29.3202 60.2393 29.1889 58.3768 28.4386C56.5143 27.6882 54.9401 26.358 53.8846 24.6431C50.1221 18.8545 42.8826 10.0024 27.5674 10.4942C12.2522 10.986 -0.269158 21.7642 0.0367383 36.9889C0.0367383 36.7737 0.0367383 36.5483 0.0367383 36.3332C0.0367383 37.0094 0.0367383 37.6856 0.0367383 38.3823C-0.258961 23.1063 12.2725 12.3896 27.5674 11.8876C42.8622 11.3855 50.1221 20.2171 53.8846 26.016C54.9401 27.7309 56.5143 29.0611 58.3768 29.8115C60.2393 30.5618 62.2921 30.6931 64.2341 30.1859L64.5808 30.0937C66.2594 29.6724 67.732 28.6602 68.7312 27.2408C69.7302 25.8215 70.1896 24.0891 70.0257 22.3584C69.8868 23.8564 69.2882 25.2741 68.3128 26.4156C67.3375 27.5571 66.0335 28.3662 64.5808 28.7311Z" fill="url(#paint5_linear)"/>
<path d="M50.9681 69.0879C50.9681 69.6167 50.812 70.1337 50.5195 70.5736C50.2272 71.0133 49.8115 71.356 49.3252 71.5584C48.8389 71.7608 48.3038 71.8138 47.7876 71.7106C47.2713 71.6074 46.7972 71.3527 46.425 70.9788C46.0527 70.6047 45.7993 70.1283 45.6967 69.6096C45.594 69.0909 45.6466 68.5532 45.8481 68.0646C46.0495 67.576 46.3906 67.1584 46.8283 66.8645C47.2659 66.5707 47.7804 66.4138 48.3068 66.4138C49.0126 66.4138 49.6895 66.6956 50.1886 67.1971C50.6877 67.6985 50.9681 68.3787 50.9681 69.0879Z" fill="url(#paint6_linear)"/>
<path d="M40.3536 68.8317C33.2772 70.8808 26.1906 68.8317 19.4609 64.4774C15.9769 62.2631 13.1062 59.2003 11.115 55.5733C9.12393 51.9463 8.07695 47.8726 8.07134 43.7304C7.92839 48.0246 8.9041 52.2818 10.9018 56.0806C12.8994 59.8795 15.8498 63.0882 19.4609 65.3893C26.1906 69.805 33.2772 71.8541 40.3536 69.7436C40.6938 69.641 41.0517 69.6108 41.4043 69.6547C41.7569 69.6988 42.0966 69.8161 42.4016 69.9992C42.7066 70.1823 42.9703 70.4273 43.176 70.7184C43.3817 71.0095 43.5247 71.3405 43.5961 71.6902C43.6571 71.3791 43.6571 71.0589 43.5961 70.7476C43.5226 70.3999 43.3778 70.0713 43.1709 69.7829C42.9641 69.4944 42.6998 69.2524 42.3947 69.0722C42.0898 68.892 41.7507 68.7775 41.3993 68.7361C41.0479 68.6947 40.6918 68.7273 40.3536 68.8317Z" fill="url(#paint7_linear)"/>
<path d="M56.485 65.7683C56.485 66.1558 56.3705 66.5346 56.156 66.8566C55.9415 67.1786 55.6367 67.4294 55.2804 67.5773C54.9239 67.725 54.5317 67.7632 54.1536 67.6869C53.7757 67.6106 53.4287 67.4231 53.1566 67.1484C52.8847 66.8737 52.7 66.524 52.626 66.1438C52.5521 65.7635 52.592 65.3698 52.741 65.0124C52.89 64.655 53.1412 64.3501 53.4628 64.1363C53.7844 63.9225 54.162 63.8095 54.5476 63.8115C54.8029 63.8115 55.0556 63.8622 55.2914 63.9606C55.527 64.0591 55.741 64.2034 55.9211 64.3853C56.1012 64.5672 56.2436 64.7829 56.3404 65.0203C56.4372 65.2576 56.4863 65.5119 56.485 65.7683Z" fill="url(#paint8_linear)"/>
<path d="M58.9212 63.8115C59.6139 63.8115 60.1753 63.2472 60.1753 62.5513C60.1753 61.8553 59.6139 61.2911 58.9212 61.2911C58.2285 61.2911 57.667 61.8553 57.667 62.5513C57.667 63.2472 58.2285 63.8115 58.9212 63.8115Z" fill="url(#paint9_linear)"/>
<path d="M10.3352 29.8478C12.6624 25.9989 15.9167 22.8007 19.7979 20.5481C23.6791 18.2957 28.0623 17.0613 32.5432 16.9591C27.8817 16.8749 23.2797 18.0209 19.1967 20.2825C15.1137 22.5442 11.6925 25.8424 9.27473 29.8478C3.51372 39.3146 1.48461 66.8851 30.1776 73.4012C31.1973 73.5958 32.3189 73.7495 33.3895 73.8417C2.45328 68.2477 4.4416 39.5503 10.3352 29.8478Z" fill="url(#paint10_linear)"/>
<defs>
<linearGradient id="paint0_linear" x1="-0.00355718" y1="37.0704" x2="70.067" y2="37.0704" gradientUnits="userSpaceOnUse">
<stop stop-color="#FA71CD"/>
<stop offset="1" stop-color="#C471F5"/>
</linearGradient>
<linearGradient id="paint1_linear" x1="2617.68" y1="1879.64" x2="2672.27" y2="4711.78" gradientUnits="userSpaceOnUse">
<stop offset="0.11" stop-color="#666666"/>
<stop offset="0.29" stop-color="#7C7C7C" stop-opacity="0.85"/>
<stop offset="0.63" stop-color="#B7B7B7" stop-opacity="0.47"/>
<stop offset="1" stop-color="white" stop-opacity="0"/>
</linearGradient>
<linearGradient id="paint2_linear" x1="38.365" y1="12.8194" x2="28.6099" y2="58.1364" gradientUnits="userSpaceOnUse">
<stop stop-color="#764BA2"/>
<stop offset="1" stop-color="#667EEA"/>
</linearGradient>
<linearGradient id="paint3_linear" x1="3919.15" y1="1917.56" x2="1358.85" y2="3006.14" gradientUnits="userSpaceOnUse">
<stop offset="0.11" stop-color="#666666"/>
<stop offset="0.29" stop-color="#7C7C7C" stop-opacity="0.85"/>
<stop offset="0.63" stop-color="#B7B7B7" stop-opacity="0.47"/>
<stop offset="1" stop-color="white" stop-opacity="0"/>
</linearGradient>
<linearGradient id="paint4_linear" x1="-0.00392796" y1="19.2438" x2="70.0565" y2="19.2438" gradientUnits="userSpaceOnUse">
<stop stop-color="#4FACFE"/>
<stop offset="1" stop-color="#00F2FE"/>
</linearGradient>
<linearGradient id="paint5_linear" x1="0.00614865" y1="24.4177" x2="70.0563" y2="24.4177" gradientUnits="userSpaceOnUse">
<stop stop-color="#00EDFF"/>
<stop offset="1" stop-color="#00F2FE" stop-opacity="0"/>
</linearGradient>
<linearGradient id="paint6_linear" x1="317.204" y1="412.758" x2="310.114" y2="444.832" gradientUnits="userSpaceOnUse">
<stop stop-color="#FA71CD"/>
<stop offset="1" stop-color="#C471F5"/>
</linearGradient>
<linearGradient id="paint7_linear" x1="20.0625" y1="57.0597" x2="41.8469" y2="60.328" gradientUnits="userSpaceOnUse">
<stop stop-color="#FF99F5"/>
<stop offset="0.99" stop-color="#C471F5" stop-opacity="0"/>
</linearGradient>
<linearGradient id="paint8_linear" x1="273.949" y1="306.738" x2="271.865" y2="322.743" gradientUnits="userSpaceOnUse">
<stop stop-color="#FA71CD"/>
<stop offset="1" stop-color="#C471F5"/>
</linearGradient>
<linearGradient id="paint9_linear" x1="210.877" y1="212.086" x2="209.536" y2="218.888" gradientUnits="userSpaceOnUse">
<stop stop-color="#FA71CD"/>
<stop offset="1" stop-color="#C471F5"/>
</linearGradient>
<linearGradient id="paint10_linear" x1="18.0641" y1="63.6987" x2="27.9215" y2="21.4981" gradientUnits="userSpaceOnUse">
<stop stop-color="#90A8FC"/>
<stop offset="1" stop-color="#667EEA" stop-opacity="0"/>
</linearGradient>
</defs>
</svg>
